<?xml version="1.0" encoding="UTF-8"?>
<svg width="119px" height="157px" viewBox="0 0 119 157" version="1.1" xmlns="http://www.w3.org/2000/svg" xmlns:xlink="http://www.w3.org/1999/xlink">
    <!-- Generator: Sketch Beta 64 (93301) - https://sketch.com -->
    <title>Sleeper-logo</title>
    <desc>Created with Sketch Beta.</desc>
    <g id="UI--dashboard" stroke="none" stroke-width="1" fill="none" fill-rule="evenodd">
        <g id="My-friends_00_empty_Dark-Copy-2" transform="translate(-128.000000, -246.000000)">
            <g id="Sleeper-logo" transform="translate(128.000000, 246.000000)">
                <path d="M23.469593,78.6555919 C21.4447266,79.5334848 8.01061935,86.2578274 6.86461975,98.2865471 L6,120.815607 C6,136.257179 10,144.839286 24.75,150.169643 C39.5,155.5 45.6095572,157 60,157 C74.3922234,157 96.5,152.5 102.75,146.375 C109,140.25 114,136.632664 114,120.815607 L113.13538,98.2865471 C111.825539,86.743489 99.4537298,79.7538395 96.5304071,78.6555919 C84.6385462,74.1894438 71.5125321,72 58.8424246,72 C45.9977903,72 33.6224194,74.2493803 23.469593,78.6555919 Z" id="path-13" fill="#00042B"></path>
                <path d="M60.2114417,0 C66.8181771,0 72.1741102,5.19598027 72.1741102,11.6057197 C72.1741102,16.7920618 68.6692258,21.1831094 63.832922,22.6720577 L63.5469143,22.7562797 L63.5469143,34.7268091 C94.4171571,36.8014506 118.797129,61.9017176 118.797129,92.5593648 C118.797624,93.0284216 118.792292,93.4971719 118.781155,93.9655116 L118.943153,102.620622 C118.975721,104.713666 119,106.724817 119,108.073464 C119,123.973782 113.337573,140.570916 99.2123268,149.506464 C89.4954209,155.654968 74.1312489,156.957914 60.6949778,156.999118 L58.6807575,156.999118 C45.8678838,156.980325 31.8554858,156.606529 22.3106807,150.907736 C7.5657873,142.102358 0.370548266,124.693148 0.220703332,108.587034 L0.198313488,105.198449 C0.16904069,102.525412 0.113117366,99.1126272 0.0680998125,96.5507153 L0,92.8385587 L0.0152703079,92.8224796 L0.0154102937,92.5593648 C0.0154102937,61.6657079 24.7736143,36.4159931 55.9797421,34.6834483 L56.9273371,34.6381637 L56.9273371,22.7699174 C51.9181355,21.3848341 47.4554285,16.9108019 47.4554285,11.6057197 C47.4554285,5.19598027 53.6055627,0 60.2114417,0 Z M60.2114417,74.2866108 C34.6497085,74.2866108 17.7302434,82.4385106 9.86924318,98.2834215 C9.64810431,98.7291569 9.22734138,100.10559 9.22734138,101.039008 L9.22734138,123.557103 L8.27042377,121.867746 C11.1164562,131.280339 16.6870694,139.947183 25.2788745,145.184673 C34.2801981,150.671785 47.9345746,150.631475 60.0239498,150.631475 L61.9258414,150.625437 C73.2360846,150.555739 86.3692688,149.773954 94.7433415,144.873186 C102.677444,140.232024 107.89824,133.050609 110.888048,124.94756 L110.695614,102.731537 C110.721046,102.027819 110.736159,101.54265 110.740953,101.27603 C110.755339,100.475957 110.169375,98.6911404 109.890986,98.1034194 C102.370027,82.225547 85.8101785,74.2866108 60.2114417,74.2866108 Z M60.2122981,6.44724324 C57.2757808,6.44724324 54.8948905,8.75798837 54.8948905,11.6057197 C54.8948905,14.4551557 57.2757808,16.7650485 60.2114417,16.7650485 C63.147959,16.7650485 65.5288494,14.4551557 65.5288494,11.6057197 C65.5288494,8.82918166 63.2655155,6.56392636 60.4306102,6.45239894 L60.2122981,6.44724324 Z" id="Shape" fill="#F9F9F9" fill-rule="nonzero"></path>
                <path d="M61.5284673,123.5828 C35.7879746,123.5828 8.340143,116.242375 8.340143,116.242375 C5.93270939,116.242375 3.9817101,118.068221 3.9817101,120.320856 C3.9817101,122.57265 5.93356735,124.398496 8.34185891,124.398496 C8.34185891,124.398496 20.2640603,127.610774 35.757946,129.785122 L44.2671857,153.29216 C44.5932101,154.721523 46.1461164,155.641601 47.7333409,155.347816 C49.3205657,155.053189 50.3423949,153.656656 50.0155124,152.228135 L42.1866345,130.594926 C48.3356284,131.280145 54.8346696,131.738079 61.2324714,131.738079 C66.9190252,131.738079 72.6373233,131.355906 78.0785009,130.76581 L70.3422825,152.228135 C70.0171162,153.656656 71.0346555,155.053189 72.6150167,155.347816 C74.1962355,155.641601 75.742278,154.721523 76.0674443,153.29216 L84.4763027,129.966949 C99.8861086,127.795126 111.713934,124.398496 111.713934,124.398496 C114.122226,124.398496 116.074083,122.57265 116.074083,120.320856 C116.074083,118.068221 114.122226,116.242375 111.713934,116.242375 C111.713934,116.242375 86.3500858,123.5828 61.5284673,123.5828 Z" id="path-17" fill="#F9F9F9" fill-rule="nonzero"></path>
                <path d="M93.0642201,98.2523505 C96.583771,96.9592604 99.3478332,96.2437397 99.9999999,98.2523505 L93.0642201,98.2523505 Z M75.559633,109.076237 L93.7247706,109.076237 C92.9624365,109.546074 92.1499601,109.968187 91.2949902,110.328587 L76.9474719,110.328587 C76.400155,109.966541 75.9267772,109.552657 75.559633,109.076237 Z M87.119266,100.265056 C88.3040749,99.8709202 89.4796866,99.435642 90.6126548,99.012706 L99.9657064,99.012706 C100.017547,99.4126025 100.005841,99.8347153 99.9623617,100.265056 L87.119266,100.265056 Z M84.4985386,101.025412 L99.9999999,101.025412 C99.9082851,101.436828 99.7820724,101.854827 99.6163129,102.277763 L77.2110091,102.277763 C78.2796113,101.974138 79.681415,101.747036 81.4887831,101.572596 L81.4896243,101.572596 C82.4614635,101.478793 83.4728488,101.282959 84.4985386,101.025412 Z M78.2018348,111.088943 L88.4403669,111.088943 C84.5540262,112.340041 80.8394115,112.266778 78.2018348,111.088943 Z M75.2414478,103.038118 L99.3394495,103.038118 C99.1322424,103.455843 98.9021069,103.874389 98.6295106,104.290469 L74.2385321,104.290469 C74.4075246,103.801205 74.730224,103.388415 75.2414478,103.038118 Z M74.2424884,105.050825 L98.0183485,105.050825 C97.6964498,105.477051 97.3400012,105.894227 96.9565877,106.303175 L74.3520354,106.303175 C74.2627125,105.84568 74.2256351,105.430973 74.2424884,105.050825 Z M74.5688073,107.063531 L96.3669724,107.063531 C95.892822,107.501277 95.3821336,107.920099 94.8400047,108.315881 L75.0123672,108.315881 C74.9197465,108.124984 74.8313744,107.930796 74.7650951,107.72591 C74.6928682,107.49634 74.6274387,107.277467 74.5688073,107.063531 Z" id="eye" fill="#00FFC6"></path>
                <path d="M42.7981651,111.088943 C40.1491282,112.232965 36.4414813,112.304349 32.559633,111.088943 L42.7981651,111.088943 Z M46.1009174,109.076237 C45.7306488,109.552657 45.2513286,109.967364 44.6976166,110.328587 L30.3881748,110.328587 C29.5242149,109.96901 28.7050592,109.546897 27.9357798,109.076237 L46.1009174,109.076237 Z M46.7614679,107.063531 C46.7023714,107.277467 46.6373653,107.497986 46.5630725,107.728379 C46.4980664,107.932441 46.4085774,108.125807 46.3157116,108.315881 L26.497279,108.315881 C25.9535912,107.919276 25.4394517,107.500454 24.9633027,107.063531 L46.7614679,107.063531 Z M47.4169024,105.050825 C47.4364246,105.43015 47.3999265,105.844857 47.309954,106.303175 L24.3898983,106.303175 C23.9994519,105.894227 23.6387133,105.476229 23.3119266,105.050825 L47.4169024,105.050825 Z M46.0446058,103.038118 C46.5753465,103.387592 46.9162358,103.798738 47.0917431,104.290469 L22.7021365,104.290469 C22.4287501,103.874389 22.1983968,103.455843 21.9908257,103.038118 L46.0446058,103.038118 Z M36.7657805,101.025412 C37.8552168,101.302707 38.9303519,101.514175 39.961741,101.612914 C41.7031567,101.778303 43.0609565,101.994708 44.119266,102.277763 L21.7138915,102.277763 C21.5481625,101.854004 21.4202905,101.436828 21.3302752,101.025412 L36.7657805,101.025412 Z M30.3442234,99.012706 C31.4885864,99.4331733 32.679195,99.8692743 33.8807339,100.265056 L21.0295627,100.265056 C20.9892031,99.8330697 20.9866806,99.4126025 21.0438567,99.012706 L30.3442234,99.012706 Z M28.266055,98.2523505 L21.3302752,98.2523505 C22.028922,96.2540659 24.7660629,96.9465581 28.266055,98.2523505 Z" id="Combined-Shape" fill="#00FFC6"></path>
            </g>
        </g>
    </g>
</svg>